<svg width="23" height="22" viewBox="0 0 23 22" fill="none" xmlns="http://www.w3.org/2000/svg">
<g id="Social-Media-Collection">
<g id="Twitter">
<path id="Fill-184" fill-rule="evenodd" clip-rule="evenodd" d="M15.5409 8.75669C15.545 8.85363 15.5477 8.95056 15.5477 9.04887C15.5477 12.0306 13.2776 15.4694 9.12649 15.4694C7.85187 15.4694 6.66593 15.0961 5.66699 14.4561C5.84368 14.4767 6.02312 14.487 6.2053 14.487C7.26268 14.487 8.23549 14.1267 9.00824 13.5211C8.0203 13.5032 7.18705 12.8507 6.89968 11.9543C7.03787 11.9804 7.1788 11.9941 7.32455 11.9941C7.53012 11.9941 7.72949 11.9666 7.91924 11.9151C6.88662 11.7081 6.10905 10.7958 6.10905 9.70269V9.67381C6.41293 9.84294 6.76149 9.94469 7.13137 9.95638C6.52568 9.55144 6.12693 8.8605 6.12693 8.07812C6.12693 7.66425 6.23831 7.2765 6.43287 6.94306C7.54593 8.30844 9.20899 9.207 11.0845 9.30119C11.046 9.13619 11.0261 8.96362 11.0261 8.78694C11.0261 7.5405 12.0367 6.52988 13.2824 6.52988C13.9321 6.52988 14.5186 6.80419 14.9297 7.24281C15.4439 7.14175 15.9272 6.95406 16.3631 6.69556C16.1947 7.22219 15.8365 7.66425 15.3711 7.94406C15.8276 7.88906 16.2621 7.76806 16.667 7.58862C16.3645 8.041 15.9816 8.43838 15.5409 8.75669ZM11.167 0C5.09155 0 0.166992 4.92456 0.166992 11C0.166992 17.0748 5.09155 22 11.167 22C17.2424 22 22.167 17.0748 22.167 11C22.167 4.92456 17.2424 0 11.167 0" fill="#41A1F2"/>
</g>
</g>
</svg>
